{"title":"I Come with the Rain [XviD - Eng Ac3 - Sub Ita] thriller noir [T","uid":6352281,"size":1560284931,"categoryP":"video","categoryS":"movies","magnet":"?xt=urn:btih:67fa76f4ca2c8292a1b0e66672115529f0a6fc95&amp;dn=I+Come+with+the+Rain+%5BXviD+-+Eng+Ac3+-+Sub+Ita%5D+thriller+noir+%5BT&amp;tr=udp%3A%2F%2Ftracker.openbittorrent.com%3A80&amp;tr=udp%3A%2F%2Fopen.demonii.com%3A1337&amp;tr=udp%3A%2F%2Ftracker.coppersurfer.tk%3A6969&amp;tr=udp%3A%2F%2Fexodus.desync.com%3A6969","seeders":0,"leechers":1,"uploader":"dedalo33","files":-1,"time":1304041345,"description":"I Come with the Rain\n\n.: Scheda del Film :.\n\nTitolo originale: I Come with the Rain\nPaese: Giappone\nAnno di produzione: 2008\nGenere: Thriller Noir\nRegia: Tran Anh Hung\nDurata: 114'\nTipologia: lungometraggio\nLingua originale: Inglese\nProduzione: Central Films - LumiÃƒÂ¨re International\nDistribuzione: Avex Marketing Communications - GAGA\nData di uscita: 6 Giugno 2009 (Giappone)\n\n.: Cast :.\n\nJosh Hartnett ÃƒÂ¨ Kline\nElias Koteas ÃƒÂ¨ Hasford\nLee Byung-hun ÃƒÂ¨ Su Dongpo\nTakuya Kimura ÃƒÂ¨ Shitao\nShawn Yue ÃƒÂ¨ Meng Zi\nTr?n N? YÃƒÂªn KhÃƒÂª ÃƒÂ¨ Lili\n\n.: Trama:.\n\nDue anni dopo aver ucciso Hasford, un serial killer, nella linea del dovere, Kline adesso lavora come detective privato, ma ancora inseguito dai fantasmi del passato. Un potente boss dei conglomerati farmaceutici ingaggia Kline per trovare suo figlio unico, Shitao, che ÃƒÂ¨ scomparso misteriosamente nelle Filippine dove aiutava in un orfanotrofio.\n\nKline segue le tracce lasciate dall'etereo Shitao alle giungle di Mindanao, e poi alla giungla urbana di Hong Kong dove richiede l'aiuto di Meng Zi, un vecchio amico poliziotto. La ricerca porta Kline ad imbattersi con il boss del crimine organizzato locale, Sung Dongpo, che sta causando problemi all'underworld (mondo criminale), trasportato da una folle passione per la sua fidanzata drogata, Lili.\n\nPreso in mezzo al fuoco incrociato tra la polizia di Hong Kong e circolo mafioso di Sung Dongpo che cerca anche lui Shitao, Kline si ritrova da solo, in questa cittÃƒÂ  sconosciuta, quando Meng Zi ÃƒÂ¨ vittima di una tentato assassinamento e ricoverato.\n\nLasciando indietro il suo hotel 5 stelle per un scialbo appartamento da scena del crimine per poter entrare nella mente di Shitao, Kline gradualmente perde se stesse nelle terribili memorie di Hasford, cui specialitÃƒÂ  era asportare gli arti delle sue vittime mentre queste erano ancora in vita, per poi riassemblarle in installazioni scultoree.\n\nDopo alcune settimane immerso nelle sue perseguitate memorie, diviso tra il bene e il male, Kline sta per lasciare Hong Kong quando incontra Shitao, che ÃƒÂ¨ diventato un misterioso vagabondo con poteri curativi.\n\nLiberamente tradotto da Wikipedia!\n\n\n.: Scheda tecnica del filmato :.\n\nGeneral\n\nFormat : AVI\nFormat/Info : Audio Video Interleave\nFile size : 1.45 GiB\nDuration : 1h 54mn\nOverall bit rate : 1 818 Kbps\nWriting application : VirtualDubMod 1.5.10.2 (build 2542/release)\nWriting library : VirtualDubMod build 2542/release\n\nVideo\n\nID : 0\nFormat : MPEG-4 Visual\nFormat profile : Advanced Simple@L5\nFormat settings, BVOP : 1\nFormat settings, QPel : No\nFormat settings, GMC : No warppoints\nFormat settings, Matrix : Custom\nMuxing mode : Packed bitstream\nCodec ID : XVID\nCodec ID/Hint : XviD\nDuration : 1h 54mn\nBit rate : 1 361 Kbps\nWidth : 720 pixels\nHeight : 304 pixels\nDisplay aspect ratio : 2.35:1\nFrame rate : 23.976 fps\nColor space : YUV\nChroma subsampling : 4:2:0\nBit depth : 8 bits\nScan type : Progressive\nCompression mode : Lossy\nBits/(Pixel*Frame) : 0.259\nStream size : 1.09 GiB (75%)\nWriting library : XviD 1.2.1 (UTC 2008-12-04)\n\nAudio\n\nID : 1\nFormat : AC-3\nFormat/Info : Audio Coding 3\nMode extension : CM (complete main)\nCodec ID : 2000\nDuration : 1h 54mn\nBit rate mode : Constant\nBit rate : 448 Kbps\nChannel(s) : 6 channels\nChannel positions : Front: L C R, Side: L R, LFE\nSampling rate : 48.0 KHz\nBit depth : 16 bits\nCompression mode : Lossy\nStream size : 367 MiB (25%)\nAlignment : Split accross interleaves\nInterleave, duration : 42 ms (1.00 video frame)\nInterleave, preload duration : 500 ms ","torrent":{"xt":"urn:btih:67fa76f4ca2c8292a1b0e66672115529f0a6fc95","amp;dn":"I+Come+with+the+Rain+%5BXviD+-+Eng+Ac3+-+Sub+Ita%5D+thriller+noir+%5BT","amp;tr":["udp%3A%2F%2Ftracker.openbittorrent.com%3A80","udp%3A%2F%2Fopen.demonii.com%3A1337","udp%3A%2F%2Ftracker.coppersurfer.tk%3A6969","udp%3A%2F%2Fexodus.desync.com%3A6969"],"infoHash":"67fa76f4ca2c8292a1b0e66672115529f0a6fc95","infoHashBuffer":{"type":"Buffer","data":[103,250,118,244,202,44,130,146,161,176,230,102,114,17,85,41,240,166,252,149]},"announce":[],"urlList":[]}}